<?xml version="1.0" encoding="utf-8"?>
<svg viewBox="-186.411 -262 1024 1024" xmlns="http://www.w3.org/2000/svg">
  <g transform="matrix(0.10000000149011612, 0, 0, -0.10000000149011612, -186.41099548339844, 762.0000000000001)" fill="#000000" stroke="none">
    <path d="M0 5120 l0 -5120 5120 0 5120 0 0 5120 0 5120 -5120 0 -5120 0 0 -5120z m5890 2582 c-19 -9 -186 -91 -370 -182 -436 -217 -804 -428 -1175 -673 -768 -510 -1285 -1005 -1289 -1236 0 -48 3 -56 31 -82 41 -36 91 -45 175 -31 210 36 426 152 988 528 460 307 626 414 843 538 549 315 1178 558 2148 831 414 117 1093 286 1141 285 7 -1 -54 -25 -136 -55 -402 -148 -781 -311 -1246 -538 -183 -89 -654 -338 -825 -436 -55 -32 -120 -69 -145 -83 -78 -43 -408 -237 -570 -333 -528 -316 -850 -481 -1247 -639 -150 -60 -270 -113 -267 -118 3 -4 31 -15 62 -24 89 -26 261 -14 433 30 238 60 560 201 869 378 58 33 224 135 370 226 440 275 497 305 760 399 359 128 1094 332 1680 467 211 48 684 146 703 145 7 0 -55 -24 -138 -53 -371 -132 -766 -300 -1755 -748 -217 -98 -554 -239 -895 -375 -322 -128 -432 -180 -550 -258 -74 -49 -180 -145 -161 -145 47 0 396 96 826 227 834 254 1056 319 1444 423 370 99 1032 256 1161 275 22 3 -34 -21 -125 -53 -230 -82 -571 -219 -1080 -435 -558 -237 -900 -381 -1070 -450 -1586 -648 -2780 -1045 -3690 -1227 -304 -62 -483 -82 -715 -83 -226 -1 -338 14 -460 62 -234 91 -367 291 -352 532 16 261 163 521 472 838 143 146 253 242 420 367 113 84 301 211 345 234 30 15 24 9 -55 -56 -191 -156 -378 -349 -483 -498 -195 -276 -213 -502 -52 -663 157 -157 457 -202 848 -126 45 9 81 17 79 19 -2 2 -37 10 -78 18 -271 52 -421 196 -421 404 1 300 293 613 1022 1097 669 444 1551 901 2335 1209 94 37 179 71 190 76 36 16 41 9 5 -8z m2164 -3240 l-27 -159 -233 -43 -232 -44 -11 -60 c-23 -139 -23 -136 -4 -136 10 0 92 13 183 29 91 16 166 28 167 27 3 -2 -45 -288 -49 -291 -3 -3 -368 -65 -379 -65 -4 0 -9 -15 -12 -32 -67 -390 -90 -514 -96 -521 -8 -8 -153 -33 -259 -43 -63 -7 -63 -7 -58 17 3 13 19 105 36 204 62 364 199 1126 204 1132 0 1 89 18 196 38 412 78 595 112 598 109 2 -1 -9 -74 -24 -162z m-1298 -89 c-3 -10 -17 -88 -31 -173 -14 -85 -34 -202 -45 -260 -43 -244 -102 -576 -128 -725 l-27 -159 -160 -22 c-88 -13 -160 -22 -161 -21 -3 4 49 315 117 697 105 594 111 621 123 626 22 8 262 52 289 53 23 1 27 -3 23 -16z m-863 -172 c5 -5 -6 -84 -24 -180 l-33 -172 -50 8 c-72 11 -174 9 -223 -5 -22 -7 -69 -31 -104 -54 -204 -136 -288 -486 -136 -565 74 -38 196 -2 284 84 l43 42 34 -22 c18 -12 41 -26 50 -32 16 -9 16 -18 -3 -129 -13 -77 -27 -126 -38 -138 -30 -34 -144 -96 -228 -124 -212 -72 -393 -6 -478 174 -30 62 -32 76 -35 192 -5 150 17 257 77 385 137 293 397 504 676 548 43 7 177 -1 188 -12z m-1250 -234 c56 -33 93 -76 126 -147 22 -48 26 -71 29 -180 6 -216 -47 -410 -157 -578 -282 -430 -742 -439 -799 -16 -19 134 20 336 93 491 91 193 262 373 412 432 68 27 88 30 174 27 62 -2 85 -8 122 -29z m-888 -109 c-3 -7 -22 -116 -44 -243 -22 -126 -63 -358 -91 -515 -28 -157 -56 -314 -62 -350 -6 -36 -14 -69 -18 -73 -4 -5 -60 -17 -125 -27 l-117 -17 -52 71 c-48 65 -232 329 -316 454 -19 28 -38 52 -41 52 -4 0 -9 -17 -12 -37 -24 -154 -104 -593 -108 -598 -3 -3 -55 -12 -115 -20 -60 -8 -121 -17 -136 -20 -36 -6 -36 -12 7 237 119 681 160 904 168 909 5 4 56 14 114 24 88 14 107 15 118 3 7 -7 99 -138 205 -290 105 -153 195 -278 199 -278 5 0 11 19 15 43 10 64 85 472 103 559 l16 76 126 25 c150 29 172 31 166 15z m-1400 -885 c-12 -72 -7 -68 -123 -81 -59 -7 -129 -15 -157 -18 l-50 -4 45 21 c37 18 278 117 288 119 2 0 0 -17 -3 -37z m-62 -335 c-9 -46 -18 -86 -22 -90 -5 -5 -314 -47 -476 -63 l-60 -6 120 56 c200 95 409 181 446 184 4 1 0 -36 -8 -81z" style="fill: rgb(60, 64, 68);"/>
    <path d="M4345 3652 c-105 -49 -195 -215 -211 -392 -8 -86 0 -132 32 -170 64 -76 206 -5 278 139 50 100 82 249 70 329 -14 90 -88 132 -169 94z" style="fill: rgb(60, 64, 68);"/>
  </g>
</svg>